<?xml version="1.0" encoding="UTF-8"?>
<svg version="1.1" xmlns="http://www.w3.org/2000/svg" width="517" height="388">
<path d="M0 0 C170.61 0 341.22 0 517 0 C517 128.04 517 256.08 517 388 C346.39 388 175.78 388 0 388 C0 259.96 0 131.92 0 0 Z " fill="#D22222" transform="translate(0,0)"/>
<path d="M0 0 C170.61 0 341.22 0 517 0 C517 128.04 517 256.08 517 388 C346.39 388 175.78 388 0 388 C0 259.96 0 131.92 0 0 Z M132 16 C130.7966803 16.04102844 129.5933606 16.08205688 128.35357666 16.12432861 C87.37183475 16.39108528 87.37183475 16.39108528 48 26 C48 26.66 48 27.32 48 28 C47.13375 28.2475 46.2675 28.495 45.375 28.75 C38.22132587 31.39950894 32.28599443 36.57304572 27 42 C27 42.66 27 43.32 27 44 C26.34 44 25.68 44 25 44 C24.67 45.65 24.34 47.3 24 49 C23.34 49 22.68 49 22 49 C22 49.99 22 50.98 22 52 C21.34 52 20.68 52 20 52 C20 53.32 20 54.64 20 56 C19.34 56 18.68 56 18 56 C18 56.99 18 57.98 18 59 C17.34 59 16.68 59 16 59 C15.67 62.3 15.34 65.6 15 69 C14.34 69 13.68 69 13 69 C13 71.31 13 73.62 13 76 C12.34 76 11.68 76 11 76 C10.04738513 80.76307437 9.91666643 85.1666528 10 90 C9.34 90 8.68 90 8 90 C7.93941406 91.02480469 7.87882813 92.04960938 7.81640625 93.10546875 C7.73194974 94.46615695 7.64730433 95.82683343 7.5625 97.1875 C7.52318359 97.86103516 7.48386719 98.53457031 7.44335938 99.22851562 C7.26716309 102.00699552 7.06237869 104.70470924 6.48632812 107.43164062 C6.00364646 109.9807426 5.88563206 112.27296902 5.90234375 114.86328125 C5.90556641 115.74951172 5.90878906 116.63574219 5.91210938 117.54882812 C5.92048828 118.46083984 5.92886719 119.37285156 5.9375 120.3125 C5.94201172 121.24384766 5.94652344 122.17519531 5.95117188 123.13476562 C5.96290766 125.42324373 5.97932637 127.71158808 6 130 C5.34 130 4.68 130 4 130 C3.95277724 144.23250268 3.91790373 158.46499281 3.89637566 172.6975584 C3.88603228 179.30954731 3.8720506 185.92148665 3.84912109 192.53344727 C3.82704962 198.93963441 3.81536085 205.34577089 3.81024551 211.75199318 C3.80661019 214.17023323 3.79951635 216.5884712 3.78853989 219.00668907 C2.60788524 247.35310751 2.60788524 247.35310751 7 275 C7.15529026 277.26896319 7.27507629 279.54042512 7.375 281.8125 C8.67985766 303.75999445 16.09110413 329.16626489 32.625 344.5078125 C45.31140609 354.95222441 61.63099758 358.78772982 77.578125 360.6171875 C78.65048401 360.74229706 79.72284302 360.86740662 80.82769775 360.99630737 C93.11133708 362.34634267 105.4047788 362.7661684 117.75 363.125 C119.95315621 363.19828654 122.15628156 363.27250643 124.359375 363.34765625 C130.49255999 363.55113458 136.62635163 363.72333003 142.76074219 363.88571167 C145.66324409 363.96282896 148.56552863 364.04538029 151.46777344 364.13162231 C187.62096791 365.19689236 223.77730047 365.18786444 259.94259191 365.18511105 C265.80582332 365.1854151 271.66900871 365.193597 277.53222656 365.20581055 C316.51880464 365.28521466 355.39464496 365.00933708 394.34583473 363.12611771 C397.04964029 362.99764125 399.75367797 362.87643538 402.45793152 362.75778198 C403.33607262 362.71924008 404.21421371 362.68069818 405.11896515 362.64098835 C406.74984725 362.56970353 408.38074585 362.49879452 410.01166534 362.42837048 C435.8688892 361.28605806 460.77507949 359.28943366 480 340 C498.38999525 318.68756365 501.3257522 286.97601932 503.25 260.0625 C503.3340509 258.9230191 503.41810181 257.78353821 503.50469971 256.60952759 C505.05124353 234.97398161 505.37687177 213.36563515 505.37516785 191.68192673 C505.37500309 189.23343129 505.37771719 186.78494989 505.38049316 184.3364563 C506.2471607 126.92541007 506.2471607 126.92541007 496 71 C495.75233887 70.21560547 495.50467773 69.43121094 495.24951172 68.62304688 C492.09397965 58.90151541 488.81585317 49.80644355 482 42 C481.39542969 41.29875 480.79085938 40.5975 480.16796875 39.875 C461.85279523 20.17966065 435.55597821 18.62749913 410.4375 17.4375 C409.22051422 17.37718597 408.00352844 17.31687195 406.74966431 17.25473022 C321.50503763 13.06076091 236.02654674 12.65769562 132 16 Z " fill="#FDFCFC" transform="translate(0,0)"/>
<path d="M0 0 C16 8 16 8 18 10 C19.35593481 10.58776573 20.73571833 11.12109106 22.125 11.625 C37.10291452 17.47210666 51.25895117 25.73807102 65.49998474 33.14343262 C69.83653762 35.39759418 74.17695159 37.64419157 78.51953125 39.88671875 C79.14006882 40.20717667 79.76060638 40.52763458 80.39994812 40.85780334 C81.01860245 41.17728439 81.63725677 41.49676544 82.2746582 41.82592773 C98.91896315 50.4213904 115.53165427 59.0710226 132 68 C132 68.99 132 69.98 132 71 C131.17612793 71.4218457 130.35225586 71.84369141 129.50341797 72.27832031 C115.38474951 79.51534047 101.27503415 86.75256657 87.37841797 94.41015625 C82.09683207 97.31791862 76.79630373 100.18582399 71.47265625 103.015625 C70.81450424 103.36556519 70.15635223 103.71550537 69.47825623 104.0760498 C66.24622866 105.79349601 63.0125685 107.50779673 59.77709961 109.21875 C53.04673104 112.78684253 46.396805 116.46386957 39.79742432 120.26889038 C35.67851299 122.63545721 31.52778193 124.81215849 27.25 126.875 C20.2526796 130.29252041 13.4515464 134.01646393 6.67480469 137.85107422 C1.09458651 141 1.09458651 141 0 141 C0 94.47 0 47.94 0 0 Z " fill="#FEFCFC" transform="translate(200,118)"/>
<path d="M0 0 C0.33 0 0.66 0 1 0 C1.59542518 6.69853333 -0.57151991 11.82684069 -3 18 C-3.67681023 19.99659018 -4.34961499 21.99464622 -5 24 C-5.66 24 -6.32 24 -7 24 C-7 24.99 -7 25.98 -7 27 C-7.66 27 -8.32 27 -9 27 C-9.2475 27.763125 -9.495 28.52625 -9.75 29.3125 C-11.55213776 33.18709619 -14.02975413 34.4224727 -17.625 36.5625 C-20.07611371 37.91692163 -20.07611371 37.91692163 -22 40 C-23.84765625 40.4921875 -23.84765625 40.4921875 -26.0625 40.875 C-29.42012726 41.54759306 -32.18951515 42.47258612 -35.25 44 C-40.10556534 46.31176474 -44.97501314 46.94190223 -50.27734375 47.60546875 C-52.95871711 47.84839099 -52.95871711 47.84839099 -55 49 C-57.28842353 49.2064743 -59.58116393 49.36647108 -61.875 49.5 C-66.45498393 49.70522711 -66.45498393 49.70522711 -70.94776058 50.50294399 C-73.09239663 51.02237863 -75.01481958 51.16953497 -77.21864319 51.23414612 C-78.05687559 51.26076482 -78.89510799 51.28738352 -79.75874138 51.31480885 C-81.131254 51.35149189 -81.131254 51.35149189 -82.53149414 51.38891602 C-83.50660509 51.41830859 -84.48171604 51.44770117 -85.48637581 51.47798443 C-88.75251531 51.57480148 -92.01880112 51.66467864 -95.28515625 51.75390625 C-97.60850761 51.81988341 -99.93185656 51.88594568 -102.25520325 51.9520874 C-109.85738268 52.16541717 -117.45988725 52.36529669 -125.0625 52.5625 C-127.01091671 52.61342112 -127.01091671 52.61342112 -128.99869537 52.66537094 C-197.00835919 54.43453065 -264.98424738 54.80730288 -333 53.0625 C-333.84960045 53.04081882 -334.6992009 53.01913765 -335.57454681 52.99679947 C-340.36741541 52.87322088 -345.15998657 52.742171 -349.95232773 52.59955597 C-351.38459474 52.55710245 -352.81689945 52.51589986 -354.24924088 52.47603607 C-356.18973738 52.42111585 -358.13003552 52.35931364 -360.0703125 52.29711914 C-361.69090576 52.24715538 -361.69090576 52.24715538 -363.34423828 52.19618225 C-366 52 -366 52 -369 51 C-371.24105425 50.85960619 -373.48570964 50.77434775 -375.73046875 50.71875 C-376.39347488 50.70074844 -377.05648102 50.68274689 -377.73957825 50.66419983 C-379.15584626 50.62589941 -380.57216567 50.58946217 -381.98852539 50.55471802 C-385.65284394 50.46353723 -389.31662811 50.3545832 -392.98046875 50.24609375 C-394.04803909 50.21478615 -394.04803909 50.21478615 -395.13717651 50.18284607 C-402.44296994 49.96455101 -409.71627579 49.62620253 -417 49 C-417.65806641 48.95294922 -418.31613281 48.90589844 -418.99414062 48.85742188 C-428.81167844 48.13053763 -436.35758331 45.92339818 -445 41 C-446.28098545 40.41358265 -447.5712857 39.8464832 -448.875 39.3125 C-451.99228751 38.00323925 -454.9915564 36.54091014 -458 35 C-458 34.34 -458 33.68 -458 33 C-458.99 32.7215625 -458.99 32.7215625 -460 32.4375 C-465.11981548 29.98425508 -469.66433367 26.33741608 -472.5 21.375 C-473.03261167 18.84509457 -473.14732387 16.57816773 -473 14 C-471.10836925 16.34562213 -469.22782225 18.68623973 -467.45703125 21.125 C-456.99405699 35.29909785 -441.0929223 41.53757508 -424.11334229 44.50437927 C-421.21979463 44.92119338 -418.32623393 45.28399886 -415.421875 45.6171875 C-414.34951599 45.74229706 -413.27715698 45.86740662 -412.17230225 45.99630737 C-399.88866292 47.34634267 -387.5952212 47.7661684 -375.25 48.125 C-373.04684379 48.19828654 -370.84371844 48.27250643 -368.640625 48.34765625 C-362.50744001 48.55113458 -356.37364837 48.72333003 -350.23925781 48.88571167 C-347.33675591 48.96282896 -344.43447137 49.04538029 -341.53222656 49.13162231 C-305.37903209 50.19689236 -269.22269953 50.18786444 -233.05740809 50.18511105 C-227.19417668 50.1854151 -221.33099129 50.193597 -215.46777344 50.20581055 C-176.48119536 50.28521466 -137.60535504 50.00933708 -98.65416527 48.12611771 C-95.95035971 47.99764125 -93.24632203 47.87643538 -90.54206848 47.75778198 C-89.66392738 47.71924008 -88.78578629 47.68069818 -87.88103485 47.64098835 C-86.25015275 47.56970353 -84.61925415 47.49879452 -82.98833466 47.42837048 C-58.10910765 46.3292637 -32.59995732 44.66897386 -14 26 C-7.55150017 18.49182685 -3.1188796 9.35663881 0 0 Z " fill="#BBA5A6" transform="translate(493,314)"/>
<path d="M0 0 C4.60288727 1.38506334 8.68603572 3.30723684 12.875 5.625 C18.06310965 8.44176861 23.27561709 11.18556111 28.5625 13.8125 C29.21226807 14.13573242 29.86203613 14.45896484 30.53149414 14.79199219 C32.686998 15.8626731 34.84346365 16.93140033 37 18 C49.09161316 23.99708749 61.13373677 30.063934 73.05859375 36.38671875 C79.62600542 39.86831901 86.22447184 43.29054041 92.82202148 46.71459961 C99.25881253 50.06402469 105.64160404 53.50411209 112 57 C112 57.99 112 58.98 112 60 C105.07 63.465 105.07 63.465 98 67 C97.67 66.01 97.34 65.02 97 64 C95.14180704 62.49398365 95.14180704 62.49398365 92.79296875 61.1015625 C91.90706055 60.54686279 91.02115234 59.99216309 90.10839844 59.4206543 C89.14450195 58.82808838 88.18060547 58.23552246 87.1875 57.625 C85.15440156 56.35373794 83.12186014 55.08158467 81.08984375 53.80859375 C79.54852783 52.84735596 79.54852783 52.84735596 77.97607422 51.86669922 C73.70347124 49.18677122 69.47345294 46.44402347 65.25 43.6875 C64.44973389 43.16623535 63.64946777 42.6449707 62.82495117 42.10791016 C54.76718656 36.85582657 46.71953613 31.58820692 38.67114258 26.32177734 C30.98469016 21.29323576 23.28878069 16.27952693 15.58007812 11.28515625 C13.38410222 9.86073944 11.19149041 8.43130653 9 7 C8.15711426 6.45263184 7.31422852 5.90526367 6.44580078 5.34130859 C5.61935059 4.79941895 4.79290039 4.2575293 3.94140625 3.69921875 C3.18674072 3.20639404 2.4320752 2.71356934 1.65454102 2.20581055 C1.10854248 1.80789307 0.56254395 1.40997559 0 1 C0 0.67 0 0.34 0 0 Z " fill="#A9A6A6" transform="translate(220,129)"/>
<path d="M0 0 C4.68609056 0.954574 8.35027808 2.11566825 12.5 4.5 C19.29133369 8.03066277 26.50283583 8.41287269 34 9 C35.71316406 9.14888672 35.71316406 9.14888672 37.4609375 9.30078125 C44.30894338 9.80720111 51.15702172 10.04484358 58.01953125 10.24609375 C58.73664276 10.26732803 59.45375427 10.28856232 60.19259644 10.31044006 C63.85154553 10.4175986 67.5105041 10.51789832 71.16992188 10.60766602 C72.53646029 10.64462159 73.90299684 10.68164665 75.26953125 10.71875 C77.10414917 10.76418945 77.10414917 10.76418945 78.97583008 10.81054688 C82 11 82 11 85 12 C86.97366458 12.14579544 88.95158515 12.23613318 90.9296875 12.29711914 C92.79815842 12.35704544 92.79815842 12.35704544 94.70437622 12.41818237 C96.09457401 12.45753334 97.48478241 12.49651103 98.875 12.53515625 C100.34781103 12.57863048 101.82061981 12.62218117 103.29342651 12.665802 C108.19536955 12.80782599 113.09763885 12.93586964 118 13.0625 C119.26510281 13.09582617 119.26510281 13.09582617 120.55576324 13.12982559 C150.93033311 13.92724727 181.29679986 14.19424091 211.68127441 14.18803024 C214.82576634 14.18750817 217.97025447 14.18866048 221.11474609 14.18997192 C243.60208015 14.19347705 266.06687469 13.98025726 288.54574585 13.35296631 C300.53322359 13.01946351 312.50754452 12.87264284 324.5 12.9375 C326.24479027 12.94256447 327.98958209 12.94711799 329.734375 12.95117188 C333.8229588 12.96169797 337.91145911 12.97863705 342 13 C340 15 340 15 336.01074219 15.18212891 C334.27267001 15.16434056 332.53468217 15.13674165 330.796875 15.1015625 C328.87436564 15.08194928 326.95183758 15.06410497 325.02929688 15.04785156 C324.03244873 15.03774048 323.03560059 15.02762939 322.00854492 15.01721191 C314.37936889 14.97356533 306.75069763 15.15878151 299.12353516 15.31738281 C297.20075464 15.35593644 295.27789542 15.39073993 293.35498047 15.421875 C282.33833798 15.60055344 271.54012519 16.06772944 260.62011719 17.58447266 C255.90320416 18.12589335 251.46617715 18.22161081 246.76953125 17.51171875 C241.73033399 16.8276412 236.7667704 16.81583504 231.6875 16.8125 C230.18606445 16.79413086 230.18606445 16.79413086 228.65429688 16.77539062 C227.69974609 16.77345703 226.74519531 16.77152344 225.76171875 16.76953125 C224.89506592 16.76542236 224.02841309 16.76131348 223.13549805 16.75708008 C220.78491005 16.79998629 220.78491005 16.79998629 219 19 C216.43359375 19.23046875 216.43359375 19.23046875 213.4375 19.1875 C212.44621094 19.18105469 211.45492187 19.17460937 210.43359375 19.16796875 C208 19 208 19 207 18 C202.42254849 17.74469595 197.83371854 17.81476468 193.25 17.8125 C191.31640625 17.79413086 191.31640625 17.79413086 189.34375 17.77539062 C188.10109375 17.77345703 186.8584375 17.77152344 185.578125 17.76953125 C184.43762695 17.76542236 183.29712891 17.76131348 182.12207031 17.75708008 C178.97889517 18.00164211 176.86820506 18.76052995 174 20 C167.71437618 20.59863084 164.91194084 19.92955267 160 16 C159.34 16.33 158.68 16.66 158 17 C156.60976798 17.07176317 155.21613684 17.08392557 153.82421875 17.0625 C152.99599609 17.05476563 152.16777344 17.04703125 151.31445312 17.0390625 C149.57486719 17.01319505 147.83528381 16.98715575 146.09570312 16.9609375 C142.60031004 16.9284474 139.45245476 16.90512089 136.01953125 17.625 C135.35308594 17.74875 134.68664062 17.8725 134 18 C133.01 17.01 133.01 17.01 132 16 C127.94595982 15.4912966 123.87133949 15.43142545 119.78857422 15.31201172 C117.77093349 15.25063678 115.75503014 15.16744069 113.73828125 15.08203125 C111.81822266 15.01822266 111.81822266 15.01822266 109.859375 14.953125 C108.68858398 14.91348633 107.51779297 14.87384766 106.31152344 14.83300781 C102.8432604 15.007904 100.22840941 15.76006223 97 17 C94 18 94 18 91 17 C91 16.34 91 15.68 91 15 C88.03 15 85.06 15 82 15 C82 14.34 82 13.68 82 13 C81.01 13 80.02 13 79 13 C78.67 13.99 78.34 14.98 78 16 C76.783125 15.62875 75.56625 15.2575 74.3125 14.875 C70.56877603 13.91745781 68.45817559 14.05477623 65 16 C64.505 15.505 64.505 15.505 64 15 C60.9865874 14.8630267 58.37524326 14.90847725 55.4375 15.625 C53 16 53 16 50.6953125 15.0625 C47.83927972 13.9366436 45.48910807 13.60418892 42.4375 13.375 C41.50808594 13.30023438 40.57867187 13.22546875 39.62109375 13.1484375 C37.4170395 13.02361774 35.20758581 13 33 13 C33 12.34 33 11.68 33 11 C27.19230134 10.05196688 21.43790813 9.69552728 15.5625 9.4375 C14.64017578 9.39431641 13.71785156 9.35113281 12.76757812 9.30664062 C10.51183837 9.20145069 8.25600501 9.09930893 6 9 C6 7.68 6 6.36 6 5 C3.05763218 2.78831775 3.05763218 2.78831775 0 1 C0 0.67 0 0.34 0 0 Z " fill="#DBDBDB" transform="translate(42,353)"/>
<path d="M0 0 C1.89163075 2.34562213 3.77217775 4.68623973 5.54296875 7.125 C16.00594301 21.29909785 31.9070777 27.53757508 48.88665771 30.50437927 C51.78020537 30.92119338 54.67376607 31.28399886 57.578125 31.6171875 C58.65048401 31.74229706 59.72284302 31.86740662 60.82769775 31.99630737 C73.11133708 33.34634267 85.4047788 33.7661684 97.75 34.125 C99.95315621 34.19828654 102.15628156 34.27250643 104.359375 34.34765625 C111.90541246 34.59750297 119.45244428 34.80287157 127 35 C127.7662759 35.02034176 128.5325518 35.04068352 129.32204819 35.06164169 C161.88131748 35.92379926 194.43982556 36.27651389 227.0088501 36.53222656 C233.46750795 36.58363134 239.92613483 36.63867821 246.38476562 36.69335938 C258.9231503 36.79900686 271.46156253 36.90083041 284 37 C284 37.33 284 37.66 284 38 C271.65247383 38.13289776 259.30492463 38.2634023 246.95734406 38.39115143 C241.21894626 38.4505902 235.48055812 38.51074282 229.7421875 38.57275391 C151.15403232 39.42013263 151.15403232 39.42013263 125.33911133 38.62768555 C123.04719888 38.55824942 120.75513697 38.50063607 118.46289062 38.44335938 C116.9687318 38.40168905 115.47459 38.35940262 113.98046875 38.31640625 C112.70067139 38.27974854 111.42087402 38.24309082 110.10229492 38.20532227 C107 38 107 38 104 37 C101.75894575 36.85960619 99.51429036 36.77434775 97.26953125 36.71875 C96.60652512 36.70074844 95.94351898 36.68274689 95.26042175 36.66419983 C93.84415374 36.62589941 92.42783433 36.58946217 91.01147461 36.55471802 C87.34715606 36.46353723 83.68337189 36.3545832 80.01953125 36.24609375 C78.95196091 36.21478615 78.95196091 36.21478615 77.86282349 36.18284607 C70.55703006 35.96455101 63.28372421 35.62620253 56 35 C55.34193359 34.95294922 54.68386719 34.90589844 54.00585938 34.85742188 C44.18832156 34.13053763 36.64241669 31.92339818 28 27 C26.71901455 26.41358265 25.4287143 25.8464832 24.125 25.3125 C21.00771249 24.00323925 18.0084436 22.54091014 15 21 C15 20.34 15 19.68 15 19 C14.34 18.814375 13.68 18.62875 13 18.4375 C7.88018452 15.98425508 3.33566633 12.33741608 0.5 7.375 C-0.03261167 4.84509457 -0.14732387 2.57816773 0 0 Z " fill="#B58687" transform="translate(20,328)"/>
<path d="M0 0 C1.5478418 0.00676758 1.5478418 0.00676758 3.12695312 0.01367188 C5.56387881 0.02500641 8.00064612 0.04109231 10.4375 0.0625 C10.4375 0.3925 10.4375 0.7225 10.4375 1.0625 C5.32704318 1.33340153 0.21636198 1.59952105 -4.89453125 1.86206055 C-6.61594623 1.95106123 -8.33730546 2.04115017 -10.05859375 2.13256836 C-38.0447801 3.6164331 -65.998386 4.22084177 -94.01840758 4.1968255 C-98.05176709 4.19421432 -102.08512485 4.19666346 -106.1184845 4.19821167 C-112.89434221 4.20001143 -119.6701889 4.19768856 -126.44604492 4.19287109 C-133.29208085 4.18805811 -140.13809496 4.18803438 -146.98413086 4.19287109 C-184.18759024 4.21855606 -221.37232373 4.20957144 -258.5625 3.0625 C-258.5625 2.7325 -258.5625 2.4025 -258.5625 2.0625 C-257.73211967 2.06388269 -257.73211967 2.06388269 -256.88496399 2.06529331 C-243.1486193 2.08778916 -229.41227801 2.10405432 -215.67591858 2.11431217 C-209.03198514 2.11937776 -202.38806688 2.12636067 -195.74414062 2.13793945 C-167.36709738 2.18610615 -139.01233023 2.09346172 -110.64256287 1.41725159 C-95.46484263 1.05719395 -80.30737686 0.9671062 -65.125 1.0625 C-50.75553136 1.14949354 -36.44222065 1.06663803 -22.08486938 0.42494202 C-14.71476063 0.09561244 -7.37844355 -0.06610597 0 0 Z " fill="#A9282D" transform="translate(405.5625,360.9375)"/>
<path d="M0 0 C2.92317601 0.00052179 5.84634793 -0.00062945 8.76952362 -0.00194168 C33.35237589 -0.00607785 57.90152399 0.35331902 82.47051239 1.18803024 C82.47051239 1.51803024 82.47051239 1.84803024 82.47051239 2.18803024 C71.72062721 2.34269452 60.97061493 2.48686905 50.22051239 2.62553024 C49.36642036 2.63655148 48.51232834 2.64757271 47.63235474 2.65892792 C6.87136723 3.18128178 -33.89128825 3.46856487 -74.65448761 3.75053024 C-75.45602076 3.75607973 -76.2575539 3.76162921 -77.08337593 3.76734686 C-97.89872125 3.91138725 -118.71409061 4.05165518 -139.52948761 4.18803024 C-139.52948761 3.85803024 -139.52948761 3.52803024 -139.52948761 3.18803024 C-122.422576 2.06539861 -105.28918945 1.59521509 -88.15448761 1.12553024 C-87.35028381 1.1033128 -86.54608002 1.08109535 -85.71750641 1.05820465 C-57.14525536 0.27522953 -28.58251905 -0.00627763 0 0 Z " fill="#DA5955" transform="translate(253.52948760986328,13.811969757080078)"/>
<path d="M0 0 C4.51253481 4.51253481 4.52005471 11.20234947 5.0625 17.25 C5.14556396 18.11810303 5.22862793 18.98620605 5.31420898 19.88061523 C5.94231842 26.69470703 6.3717592 33.51384145 6.65844727 40.35058594 C6.79826468 43.45875219 7.00995249 46.02985748 8 49 C8.34233972 52.17592952 8.42262437 55.37153625 8.55078125 58.5625 C8.61353996 60.11529663 8.61353996 60.11529663 8.67756653 61.69946289 C9.24106213 77.59005297 9.18711934 93.49457989 9.18530273 109.39306641 C9.18520042 114.08337955 9.19896611 118.7735437 9.21607494 123.46382141 C9.22728133 127.13768167 9.22921948 130.81150649 9.22869301 134.48538208 C9.22985576 136.2138013 9.23417878 137.94222198 9.24202538 139.67062378 C9.28721175 150.62737113 8.63831827 161.15755116 7 172 C6.8010772 173.33479756 6.60215852 174.66959573 6.40324402 176.00439453 C5.94973973 179.00541681 5.48231448 182.00349301 5 185 C4.67 185 4.34 185 4 185 C4.05927673 184.14169083 4.11855347 183.28338165 4.17962646 182.39906311 C5.66350458 160.35932798 6.32317748 138.41755594 6.26074219 116.3293457 C6.24933928 112.25076869 6.25615153 108.17245268 6.26762295 104.09388447 C6.30692032 87.57965042 6.07343789 71.12021289 5.08203125 54.6328125 C5.02098331 53.61602071 5.02098331 53.61602071 4.95870209 52.57868767 C4.06154357 38.01354222 2.59889163 23.50305383 1 9 C0.89703613 8.06559082 0.79407227 7.13118164 0.68798828 6.16845703 C0.46021928 4.11213125 0.23039855 2.05603282 0 0 Z " fill="#E8CACA" transform="translate(498,79)"/>
<path d="M0 0 C-13.51645884 11.24590745 -13.51645884 11.24590745 -22 12 C-22.99 11.67 -23.98 11.34 -25 11 C-25 10.34 -25 9.68 -25 9 C-27.75641416 9.49756092 -27.75641416 9.49756092 -30 11 C-32.33333333 11 -34.66666667 11 -37 11 C-40.70242121 11.39668799 -43.95098825 11.98424622 -47.5 13.125 C-50.81137521 13.9528438 -52.46641638 13.78920434 -55.72119141 13.2578125 C-60.92680549 12.66887652 -66.20617486 12.9003984 -71.4375 12.9375 C-73.25024414 12.94426758 -73.25024414 12.94426758 -75.09960938 12.95117188 C-78.06645789 12.96289855 -81.0332027 12.97931104 -84 13 C-84 12.01 -84 11.02 -84 10 C-82.39560059 9.96241577 -82.39560059 9.96241577 -80.75878906 9.92407227 C-76.78536273 9.82980472 -72.81210332 9.72963142 -68.83886719 9.62768555 C-67.12015695 9.58440984 -65.40140576 9.54272959 -63.68261719 9.50268555 C-61.210161 9.44480435 -58.73790953 9.38116164 -56.265625 9.31640625 C-55.11540863 9.29133751 -55.11540863 9.29133751 -53.94195557 9.26576233 C-50.46612778 9.16953547 -47.35425423 8.8585846 -44 8 C-41.75203467 7.8255889 -39.50150204 7.68294061 -37.25 7.5625 C-31.87542646 7.21162111 -27.16650257 6.45024634 -22 5 C-20.9275 4.896875 -19.855 4.79375 -18.75 4.6875 C-14.02183022 3.82066887 -10.02595592 1.96116249 -5.671875 -0.0390625 C-3 -1 -3 -1 0 0 Z " fill="#E3E3E2" transform="translate(468,355)"/>
<path d="M0 0 C0.33 0 0.66 0 1 0 C1.78015406 10.83190189 2.18449279 21.61216236 2.23828125 32.47265625 C2.24306299 33.23105301 2.24784473 33.98944977 2.25277138 34.77082825 C2.28844082 40.53471202 2.30389888 46.29851906 2.3125 52.0625 C2.31423973 52.90949841 2.31597946 53.75649681 2.31777191 54.62916183 C2.3601504 78.01009243 1.93196723 101.24254443 0.125 124.5625 C0.03795807 125.69172882 -0.04908386 126.82095764 -0.13876343 127.98440552 C-0.98971275 138.72267929 -1.8700543 149.42623862 -4 160 C-4.33 160 -4.66 160 -5 160 C-4.86132739 155.89555833 -4.71283897 151.7915296 -4.5625 147.6875 C-4.52318359 146.52025391 -4.48386719 145.35300781 -4.44335938 144.15039062 C-4.40146484 143.03212891 -4.35957031 141.91386719 -4.31640625 140.76171875 C-4.27974854 139.73006592 -4.24309082 138.69841309 -4.20532227 137.63549805 C-4 135 -4 135 -3 132 C-2.86217159 130.11729227 -2.77520091 128.23065179 -2.71875 126.34375 C-2.68136719 125.23902344 -2.64398438 124.13429688 -2.60546875 122.99609375 C-2.57066406 121.84238281 -2.53585937 120.68867188 -2.5 119.5 C-2.43117633 117.21862285 -2.3584404 114.93735939 -2.28125 112.65625 C-2.25095703 111.64369141 -2.22066406 110.63113281 -2.18945312 109.58789062 C-2 107 -2 107 -1 104 C-0.90025663 102.56616192 -0.85391764 101.12824619 -0.84178162 99.69099426 C-0.82709839 98.37220024 -0.82709839 98.37220024 -0.81211853 97.02676392 C-0.80636307 96.06507294 -0.8006076 95.10338196 -0.79467773 94.11254883 C-0.77982834 92.5903347 -0.77982834 92.5903347 -0.76467896 91.03736877 C-0.73304791 87.67728014 -0.70830009 84.31717736 -0.68359375 80.95703125 C-0.66302562 78.62960947 -0.64202918 76.30219143 -0.62062073 73.97477722 C-0.56538558 67.84440137 -0.51598262 61.71399172 -0.46777344 55.58355713 C-0.41756899 49.32976265 -0.3618774 43.07601733 -0.30664062 36.82226562 C-0.19904138 24.54821907 -0.09760029 12.27412985 0 0 Z " fill="#BB494B" transform="translate(503,136)"/>
<path d="M0 0 C3 0 3 0 4.47802734 1.21923828 C8.40810761 5.79376371 10.67677787 10.19102383 12.625 15.875 C12.91713379 16.69709961 13.20926758 17.51919922 13.51025391 18.36621094 C17.71556164 30.53664673 21.20789847 43.49703651 21.0625 56.4375 C21.05347656 57.48808594 21.04445313 58.53867188 21.03515625 59.62109375 C21.02355469 60.40613281 21.01195312 61.19117188 21 62 C18.64992335 58.47488503 18.65352265 56.62466249 18.4375 52.4375 C18.09822912 46.6032525 17.62914043 40.80950951 17 35 C16.34 35 15.68 35 15 35 C15 32.69 15 30.38 15 28 C13.35 27.67 11.7 27.34 10 27 C9 21.25 9 21.25 9 19 C8.01 19.33 7.02 19.66 6 20 C5.34 19.67 4.68 19.34 4 19 C4.03480469 18.30132812 4.06960938 17.60265625 4.10546875 16.8828125 C4.14607422 15.51769531 4.14607422 15.51769531 4.1875 14.125 C4.23970703 12.76761719 4.23970703 12.76761719 4.29296875 11.3828125 C4.14794922 10.20332031 4.14794922 10.20332031 4 9 C3.01 8.34 2.02 7.68 1 7 C1 6.01 1 5.02 1 4 C0.6937566 2.66018514 0.36548445 1.32488113 0 0 Z " fill="#E02C25" transform="translate(480,45)"/>
<path d="M0 0 C22.68859016 -0.41805491 45.27479389 0.1613651 67.9375 1.3125 C69.16943085 1.3714444 70.40136169 1.43038879 71.67062378 1.49111938 C105.26342117 3.12324985 105.26342117 3.12324985 114 8 C112.783125 8.04125 111.56625 8.0825 110.3125 8.125 C109.28576172 8.15980469 109.28576172 8.15980469 108.23828125 8.1953125 C106 8 106 8 103.80078125 6.9921875 C99.13224 5.33833886 94.37516679 5.91856134 89.4765625 6.078125 C85.08006136 6.16321857 81.10741372 5.90296367 76.796875 5 C69.98757862 3.64125054 63.2907658 3.85740689 56.375 4 C42.38058877 4.28677072 42.38058877 4.28677072 37.66796875 3.0390625 C30.64092426 1.18502145 23.16414254 1.52328635 15.9375 1.375 C14.38865172 1.33674483 12.83982301 1.29768894 11.29101562 1.2578125 C7.52750579 1.16263921 3.76389683 1.07831503 0 1 C0 0.67 0 0.34 0 0 Z " fill="#D75450" transform="translate(340,16)"/>
<path d="M0 0 C0 0.33 0 0.66 0 1 C-0.81984375 1.04898437 -1.6396875 1.09796875 -2.484375 1.1484375 C-4.10085937 1.26058594 -4.10085937 1.26058594 -5.75 1.375 C-7.35101563 1.47941406 -7.35101563 1.47941406 -8.984375 1.5859375 C-11.91488403 1.81028246 -11.91488403 1.81028246 -13.93359375 3.03515625 C-17.05635778 4.49323322 -19.89544746 4.14835559 -23.3125 4.0625 C-31.88579281 3.69380015 -31.88579281 3.69380015 -40 6 C-41.85625 5.938125 -41.85625 5.938125 -43.75 5.875 C-47.91414279 5.83014388 -50.34966211 6.91409263 -54 9 C-59.54799383 11.84538654 -63.72517623 13.53402756 -70 13 C-66.25 10 -66.25 10 -64 10 C-64 9.34 -64 8.68 -64 8 C-43.70503297 -0.34898643 -21.64230906 -0.57038117 0 0 Z " fill="#DB423C" transform="translate(112,18)"/>
<path d="M0 0 C1.89163075 2.34562213 3.77217775 4.68623973 5.54296875 7.125 C15.7976698 21.01695199 31.75252842 27.76900057 48.51953125 30.39453125 C50.3418166 30.63388572 52.17050036 30.82408657 54 31 C54 31.66 54 32.32 54 33 C57.3 33.33 60.6 33.66 64 34 C64 34.33 64 34.66 64 35 C50.40592433 35.15104529 39.8946737 33.77613877 28 27 C26.71901455 26.41358265 25.4287143 25.8464832 24.125 25.3125 C21.00771249 24.00323925 18.0084436 22.54091014 15 21 C15 20.34 15 19.68 15 19 C14.34 18.814375 13.68 18.62875 13 18.4375 C7.88018452 15.98425508 3.33566633 12.33741608 0.5 7.375 C-0.03261167 4.84509457 -0.14732387 2.57816773 0 0 Z " fill="#BEA6A5" transform="translate(20,328)"/>
<path d="M0 0 C0.33 0 0.66 0 1 0 C1.59542518 6.69853333 -0.57151991 11.82684069 -3 18 C-3.67681023 19.99659018 -4.34961499 21.99464622 -5 24 C-5.66 24 -6.32 24 -7 24 C-7 24.99 -7 25.98 -7 27 C-7.66 27 -8.32 27 -9 27 C-9.2475 27.763125 -9.495 28.52625 -9.75 29.3125 C-11.55213776 33.18709619 -14.02975413 34.4224727 -17.625 36.5625 C-20.07611371 37.91692163 -20.07611371 37.91692163 -22 40 C-22.99 39.67 -23.98 39.34 -25 39 C-22.26065852 36.17764817 -19.55154126 33.65264391 -16.4375 31.25 C-13.14596466 28.43877454 -11.73061566 25.83631379 -10.171875 21.84375 C-8.28602163 17.26741248 -5.97353165 12.9052149 -3.72875977 8.49658203 C-2.30843903 5.6885214 -0.99673786 2.99021358 0 0 Z " fill="#D8D8D5" transform="translate(493,314)"/>
<path d="M0 0 C4.68609056 0.954574 8.35027808 2.11566825 12.5 4.5 C19.29133369 8.03066277 26.50283583 8.41287269 34 9 C35.71316406 9.14888672 35.71316406 9.14888672 37.4609375 9.30078125 C52.26851771 10.39582305 67.16027617 10.58013518 82 11 C82 11.33 82 11.66 82 12 C77.14770872 12.02510938 72.29545697 12.04304913 67.44311523 12.05493164 C65.79955383 12.05989612 64.15599668 12.06666991 62.51245117 12.07543945 C36.88483552 12.20854959 36.88483552 12.20854959 26 10 C24.381374 9.86173037 22.75958568 9.75688451 21.13671875 9.68359375 C20.25048828 9.64169922 19.36425781 9.59980469 18.45117188 9.55664062 C17.53916016 9.51732422 16.62714844 9.47800781 15.6875 9.4375 C14.75615234 9.39431641 13.82480469 9.35113281 12.86523438 9.30664062 C10.57695546 9.20102775 8.28857628 9.09892248 6 9 C6 7.68 6 6.36 6 5 C3.05763218 2.78831775 3.05763218 2.78831775 0 1 C0 0.67 0 0.34 0 0 Z " fill="#D8D6D6" transform="translate(42,353)"/>
<path d="M0 0 C3.41664873 -0.02908357 6.8332655 -0.04682691 10.25 -0.0625 C11.70212891 -0.07506836 11.70212891 -0.07506836 13.18359375 -0.08789062 C14.11816406 -0.09111328 15.05273438 -0.09433594 16.015625 -0.09765625 C16.87446289 -0.10289307 17.73330078 -0.10812988 18.61816406 -0.11352539 C21 0 21 0 22.89021301 0.50198364 C25.06388696 1.01508055 26.90922852 1.10790537 29.13842773 1.08178711 C30.34504311 1.07199074 30.34504311 1.07199074 31.57603455 1.06199646 C32.43652908 1.05056107 33.29702362 1.03912567 34.18359375 1.02734375 C36.01627416 1.01469844 37.84895655 1.00233741 39.68164062 0.99023438 C42.56296998 0.9654144 45.44419596 0.93742245 48.32543945 0.90405273 C51.11149752 0.87380832 53.89742367 0.85606405 56.68359375 0.83984375 C57.54206406 0.82638412 58.40053436 0.8129245 59.28501892 0.79905701 C63.6533912 0.78078021 67.02276474 0.94682508 71 3 C71 3.33 71 3.66 71 4 C47.23919908 4.15199804 23.58759422 4.26110363 0 1 C0 0.67 0 0.34 0 0 Z " fill="#A92529" transform="translate(74,359)"/>
<path d="M0 0 C0.66 0 1.32 0 2 0 C5 4.38461538 5 4.38461538 5 7 C5.639375 7.0825 6.27875 7.165 6.9375 7.25 C10.37180031 8.09105314 13.3167826 9.41141577 16.51953125 10.88671875 C19.90996556 12.40840974 23.36749787 13.73799124 26.8359375 15.0703125 C29 16 29 16 32 18 C32 18.66 32 19.32 32 20 C32.721875 19.95875 33.44375 19.9175 34.1875 19.875 C37.26692668 20.01186341 39.27932073 20.56408594 42 22 C42.495 23.485 42.495 23.485 43 25 C45.49759982 26.69882448 45.49759982 26.69882448 48 28 C47.01 28.495 47.01 28.495 46 29 C43.71948126 27.92699453 41.56621488 26.79762403 39.375 25.5625 C38.01399312 24.81593309 36.65197928 24.07119952 35.2890625 23.328125 C34.22993652 22.74901367 34.22993652 22.74901367 33.14941406 22.15820312 C29.71673433 20.30851745 26.23894045 18.55320066 22.75 16.8125 C22.0801709 16.47766602 21.4103418 16.14283203 20.72021484 15.79785156 C16.85083424 13.8779081 12.95155959 12.05904567 9 10.3125 C4.36923801 8.25282674 0.22746016 5.79171897 -4 3 C-3.01 2.67 -2.02 2.34 -1 2 C-0.67 1.34 -0.34 0.68 0 0 Z " fill="#A32A2C" transform="translate(213,120)"/>
<path d="M0 0 C7.35090074 0.09219266 14.70146877 0.19948824 22.05200195 0.31738281 C24.55357841 0.35571119 27.05521072 0.39055718 29.55688477 0.421875 C33.14880357 0.46744146 36.74033662 0.52545024 40.33203125 0.5859375 C42.01496025 0.60326431 42.01496025 0.60326431 43.73188782 0.62094116 C45.29316658 0.6507457 45.29316658 0.6507457 46.88598633 0.68115234 C47.80309891 0.69447601 48.72021149 0.70779968 49.66511536 0.7215271 C52 1 52 1 55 3 C53.02 3.33 51.04 3.66 49 4 C49 3.34 49 2.68 49 2 C48.01 2 47.02 2 46 2 C45.67 2.99 45.34 3.98 45 5 C43.783125 4.62875 42.56625 4.2575 41.3125 3.875 C37.56877603 2.91745781 35.45817559 3.05477623 32 5 C31.67 4.67 31.34 4.34 31 4 C27.9865874 3.8630267 25.37524326 3.90847725 22.4375 4.625 C20 5 20 5 17.6953125 4.0625 C14.83927972 2.9366436 12.48910807 2.60418892 9.4375 2.375 C8.50808594 2.30023438 7.57867187 2.22546875 6.62109375 2.1484375 C4.4170395 2.02361774 2.20758581 2 0 2 C0 1.34 0 0.68 0 0 Z " fill="#E3E2E2" transform="translate(75,364)"/>
<path d="M0 0 C0.721875 0.309375 1.44375 0.61875 2.1875 0.9375 C4.91524983 2.05781507 4.91524983 2.05781507 7.5625 2.5 C10.00209278 3.00042929 11.8331386 3.79618811 14 5 C14 5.66 14 6.32 14 7 C15.32 7 16.64 7 18 7 C18 7.99 18 8.98 18 10 C18.78375 10.103125 19.5675 10.20625 20.375 10.3125 C25.0323976 11.19579954 29.48192149 12.58028758 34 14 C34 14.66 34 15.32 34 16 C35.918125 15.938125 35.918125 15.938125 37.875 15.875 C40.0546875 15.8046875 40.0546875 15.8046875 42 16 C42.66 16.66 43.32 17.32 44 18 C29.45272001 19.18753306 13.72287261 12.39505728 2.56640625 3.30859375 C1.71949219 2.54675781 0.87257813 1.78492188 0 1 C0 0.67 0 0.34 0 0 Z " fill="#AD2C30" transform="translate(30,341)"/>
<path d="M0 0 C2.475 0.495 2.475 0.495 5 1 C2.00711267 12.37297185 -5.38433747 21.58955832 -15 28 C-14.125 23.25 -14.125 23.25 -13 21 C-13.33 20.01 -13.66 19.02 -14 18 C-10.535 17.505 -10.535 17.505 -7 17 C-6.87625 16.236875 -6.7525 15.47375 -6.625 14.6875 C-6 12 -6 12 -4 9 C-2.68 9.33 -1.36 9.66 0 10 C0.2165625 8.824375 0.2165625 8.824375 0.4375 7.625 C1 5 1 5 2 3 C1.34 3 0.68 3 0 3 C0 2.01 0 1.02 0 0 Z " fill="#B42029" transform="translate(486,319)"/>
<path d="M0 0 C0.33 0 0.66 0 1 0 C1.24716382 9.82663416 0.57891707 19.54676397 -0.171875 29.3359375 C-0.37456541 31.9943002 -0.56660819 34.65328934 -0.7578125 37.3125 C-1.42375887 46.29743076 -2.24781143 55.14683672 -4 64 C-4.33 64 -4.66 64 -5 64 C-4.86132739 59.89555833 -4.71283897 55.7915296 -4.5625 51.6875 C-4.52318359 50.52025391 -4.48386719 49.35300781 -4.44335938 48.15039062 C-4.40146484 47.03212891 -4.35957031 45.91386719 -4.31640625 44.76171875 C-4.27974854 43.73006592 -4.24309082 42.69841309 -4.20532227 41.63549805 C-4 39 -4 39 -3 36 C-2.87380466 34.21090154 -2.79852066 32.4179886 -2.75390625 30.625 C-2.72103516 29.55636719 -2.68816406 28.48773438 -2.65429688 27.38671875 C-2.59394818 25.16023701 -2.53656914 22.93367244 -2.48242188 20.70703125 C-2.25847566 13.63371111 -1.48325793 6.92129243 0 0 Z " fill="#B23133" transform="translate(503,232)"/>
<path d="M0 0 C0 0.33 0 0.66 0 1 C-0.81984375 1.04898437 -1.6396875 1.09796875 -2.484375 1.1484375 C-3.56203125 1.22320313 -4.6396875 1.29796875 -5.75 1.375 C-7.35101563 1.47941406 -7.35101563 1.47941406 -8.984375 1.5859375 C-11.89204637 1.78675101 -11.89204637 1.78675101 -13.71289062 3.01367188 C-16.97302448 4.419622 -20.12343105 4.24663087 -23.609375 4.1953125 C-24.33618469 4.1924826 -25.06299438 4.18965271 -25.81182861 4.18673706 C-28.12472251 4.17557523 -30.43722388 4.15047851 -32.75 4.125 C-34.32160898 4.11496501 -35.89322404 4.10584006 -37.46484375 4.09765625 C-41.31004622 4.07564904 -45.15495664 4.04114715 -49 4 C-49 3.67 -49 3.34 -49 3 C-32.57782227 0.63721729 -16.58860327 -0.43719119 0 0 Z " fill="#DB5C57" transform="translate(112,18)"/>
<path d="M0 0 C0.33 1.32 0.66 2.64 1 4 C0.34 4 -0.32 4 -1 4 C-1.226875 5.03125 -1.45375 6.0625 -1.6875 7.125 C-2.56851735 10.29793929 -3.31466664 11.37606501 -5.5625 14.0625 C-8.1804944 17.21751889 -8.71271263 18.97797677 -9 23 C-9.66 23 -10.32 23 -11 23 C-11 23.66 -11 24.32 -11 25 C-11.66 25 -12.32 25 -13 25 C-13.33 25.99 -13.66 26.98 -14 28 C-13.505 23.545 -13.505 23.545 -13 19 C-12.34 19 -11.68 19 -11 19 C-11 18.01 -11 17.02 -11 16 C-10.34 16 -9.68 16 -9 16 C-9 14.68 -9 13.36 -9 12 C-8.34 12 -7.68 12 -7 12 C-7 11.01 -7 10.02 -7 9 C-6.34 9 -5.68 9 -5 9 C-4.67 7.35 -4.34 5.7 -4 4 C-3.34 4 -2.68 4 -2 4 C-1.34 2.68 -0.68 1.36 0 0 Z " fill="#DC5A56" transform="translate(29,40)"/>
<path d="M0 0 C0.66 0.33 1.32 0.66 2 1 C0.35 1.66 -1.3 2.32 -3 3 C-3 3.99 -3 4.98 -3 6 C-5.76264289 6.59732819 -8.16032769 7 -11 7 C-11 7.99 -11 8.98 -11 10 C-12.65 10.33 -14.3 10.66 -16 11 C-16.33 11.99 -16.66 12.98 -17 14 C-21.455 14.495 -21.455 14.495 -26 15 C-26 15.66 -26 16.32 -26 17 C-27.32 16.67 -28.64 16.34 -30 16 C-5.25584728 2.07418259 -5.25584728 2.07418259 0 0 Z " fill="#C13336" transform="translate(328,190)"/>
<path d="M0 0 C0.33 0 0.66 0 1 0 C1.36224098 15.31474381 0.07196906 29.39962305 -5 44 C-5.66 44 -6.32 44 -7 44 C-6.73445313 42.83984375 -6.46890625 41.6796875 -6.1953125 40.484375 C-3.1289436 26.97785365 -0.77929851 13.86331039 0 0 Z " fill="#DAA9A8" transform="translate(501,270)"/>
<path d="M0 0 C0.33 0 0.66 0 1 0 C0.67 4.29 0.34 8.58 0 13 C-0.66 13 -1.32 13 -2 13 C-1.98839844 14.02480469 -1.97679687 15.04960938 -1.96484375 16.10546875 C-1.95545978 17.466144 -1.94636023 18.82682124 -1.9375 20.1875 C-1.92912109 20.86103516 -1.92074219 21.53457031 -1.91210938 22.22851562 C-1.89378488 25.98503683 -2.26698183 29.33490917 -3 33 C-3.13826963 34.618626 -3.24311549 36.24041432 -3.31640625 37.86328125 C-3.35830078 38.74951172 -3.40019531 39.63574219 -3.44335938 40.54882812 C-3.48267578 41.46083984 -3.52199219 42.37285156 -3.5625 43.3125 C-3.60568359 44.24384766 -3.64886719 45.17519531 -3.69335938 46.13476562 C-3.79897225 48.42304454 -3.90107752 50.71142372 -4 53 C-4.33 53 -4.66 53 -5 53 C-5.19877293 41.6653562 -5.28031515 30.40898991 -4.0625 19.125 C-3.97564941 18.31764404 -3.88879883 17.51028809 -3.79931641 16.6784668 C-3.14472983 11.14472983 -3.14472983 11.14472983 -2 10 C-1.6068352 8.32115762 -1.25914548 6.63149955 -0.9375 4.9375 C-0.76089844 4.01839844 -0.58429687 3.09929687 -0.40234375 2.15234375 C-0.26957031 1.44207031 -0.13679687 0.73179688 0 0 Z " fill="#FAD2D2" transform="translate(10,77)"/>
<path d="M0 0 C0.99 0.33 1.98 0.66 3 1 C-10.51645884 12.24590745 -10.51645884 12.24590745 -19 13 C-19.99 12.67 -20.98 12.34 -22 12 C-22 11.34 -22 10.68 -22 10 C-18.7 9.67 -15.4 9.34 -12 9 C-11.67 8.01 -11.34 7.02 -11 6 C-9.03696582 4.92925408 -7.0302589 3.93704257 -5 3 C-4.113125 2.4225 -3.22625 1.845 -2.3125 1.25 C-1.549375 0.8375 -0.78625 0.425 0 0 Z " fill="#F3F2F1" transform="translate(465,354)"/>
<path d="M0 0 C1.89512567 2.34995583 3.77804078 4.70112422 5.578125 7.125 C9.32259335 12.11762447 13.11490386 16.11186225 18 20 C17.67 20.66 17.34 21.32 17 22 C16.34 21.67 15.68 21.34 15 21 C15 20.34 15 19.68 15 19 C14.34 18.814375 13.68 18.62875 13 18.4375 C7.88018452 15.98425508 3.33566633 12.33741608 0.5 7.375 C-0.03261167 4.84509457 -0.14732387 2.57816773 0 0 Z " fill="#C5ACA9" transform="translate(20,328)"/>
<path d="M0 0 C2 1 2 1 2.9375 3 C3.8891846 5.34608221 3.8891846 5.34608221 7 6 C7.33 6.99 7.66 7.98 8 9 C9.62948064 10.22445284 9.62948064 10.22445284 11.5625 11.1875 C13.2640625 12.0846875 13.2640625 12.0846875 15 13 C14.01 13.495 14.01 13.495 13 14 C10.01254869 12.87862514 7.24597325 11.25855134 4.4375 9.75 C3.64408203 9.34136719 2.85066406 8.93273437 2.03320312 8.51171875 C1.27845703 8.11082031 0.52371094 7.70992187 -0.25390625 7.296875 C-0.94814697 6.92916992 -1.6423877 6.56146484 -2.35766602 6.18261719 C-4 5 -4 5 -5 2 C-4.360625 1.855625 -3.72125 1.71125 -3.0625 1.5625 C-1.02454854 1.18992819 -1.02454854 1.18992819 0 0 Z " fill="#CF2729" transform="translate(281,153)"/>
<path d="M0 0 C7.33333333 3.66666667 14.66666667 7.33333333 22 11 C18.25401267 13.49732489 16.42998969 13.62175294 12 13 C10.59431196 11.05017465 9.2704964 9.04049422 8 7 C5.93648668 5.52720229 3.83201195 4.29489705 1.609375 3.078125 C1.07828125 2.72234375 0.5471875 2.3665625 0 2 C0 1.34 0 0.68 0 0 Z " fill="#AD9B97" transform="translate(245,141)"/>
<path d="M0 0 C0.33 0 0.66 0 1 0 C1.05907207 4.22910589 1.09395041 8.45810289 1.125 12.6875 C1.15013672 14.45577148 1.15013672 14.45577148 1.17578125 16.25976562 C1.22016577 24.35994059 0.47369081 32.03592235 -1 40 C-1.33 40 -1.66 40 -2 40 C-2.02917228 36.77085248 -2.04685663 33.54173917 -2.0625 30.3125 C-2.07087891 29.40048828 -2.07925781 28.48847656 -2.08789062 27.54882812 C-2.09111328 26.66259766 -2.09433594 25.77636719 -2.09765625 24.86328125 C-2.10289307 24.05157471 -2.10812988 23.23986816 -2.11352539 22.40356445 C-1.99276891 19.84690298 -1.52839797 17.5013516 -1 15 C-0.78118981 12.3931873 -0.58987147 9.79779811 -0.4375 7.1875 C-0.39431641 6.49462891 -0.35113281 5.80175781 -0.30664062 5.08789062 C-0.20138547 3.39211314 -0.10027137 1.69607948 0 0 Z " fill="#DA5858" transform="translate(8,90)"/>
<path d="M0 0 C0.33 0.66 0.66 1.32 1 2 C-2.09738078 8.96910675 -8.56619463 13.03743306 -15.10546875 16.43359375 C-17.41923952 17.12533965 -18.74335355 16.76555855 -21 16 C-20.21496094 15.56429688 -19.42992187 15.12859375 -18.62109375 14.6796875 C-8.07127035 8.7921077 -8.07127035 8.7921077 0 0 Z " fill="#B79C99" transform="translate(481,337)"/>
<path d="M0 0 C2.23370599 3.35055899 2.75749742 5.82192459 3.5625 9.75 C3.81128906 10.94109375 4.06007813 12.1321875 4.31640625 13.359375 C5.39580197 19.10792819 6.12829005 24.58218565 6.0625 30.4375 C6.05347656 31.48808594 6.04445313 32.53867188 6.03515625 33.62109375 C6.02355469 34.40613281 6.01195312 35.19117188 6 36 C3.64992335 32.47488503 3.65352265 30.62466249 3.4375 26.4375 C3.09822912 20.6032525 2.62914043 14.80950951 2 9 C1.34 9 0.68 9 0 9 C0 6.03 0 3.06 0 0 Z " fill="#C34A47" transform="translate(495,71)"/>
<path d="M0 0 C6.72260126 6.72260126 5.03818407 20.11472673 5.06591797 29.05151367 C5.06103927 32.36798643 5.03613382 35.68371814 5 39 C4.67 39 4.34 39 4 39 C3.91435791 38.13834229 3.82871582 37.27668457 3.74047852 36.38891602 C3.41846165 33.1515702 3.09597867 29.91427123 2.77319336 26.67700195 C2.6343385 25.28346549 2.49566233 23.8899112 2.35717773 22.49633789 C1.61140997 14.99289113 0.854566 7.49197185 0 0 Z " fill="#F3C1BD" transform="translate(498,79)"/>
<path d="M0 0 C2.1116769 2.1116769 2.56595124 3.21569542 3.47265625 5.9921875 C3.73240234 6.77980469 3.99214844 7.56742187 4.25976562 8.37890625 C4.52466797 9.20261719 4.78957031 10.02632813 5.0625 10.875 C5.33126953 11.69097656 5.60003906 12.50695312 5.87695312 13.34765625 C7.03212161 16.87941825 8.13219385 20.38524383 9 24 C7.68 24 6.36 24 5 24 C5 21.36 5 18.72 5 16 C4.34 16 3.68 16 3 16 C0.89424625 10.47239641 -0.37851209 5.93002267 0 0 Z " fill="#F5D5D2" transform="translate(11,304)"/>
<path d="M0 0 C3.31242312 -0.0588996 6.62470851 -0.09389398 9.9375 -0.125 C11.32678711 -0.15013672 11.32678711 -0.15013672 12.74414062 -0.17578125 C18.81872962 -0.21840994 24.11835079 0.46775498 30 2 C30 2.33 30 2.66 30 3 C19.82241303 3.31860272 10.06979989 2.35067975 0 1 C0 0.67 0 0.34 0 0 Z " fill="#A93136" transform="translate(74,359)"/>
<path d="M0 0 C0.33 0 0.66 0 1 0 C1.5326514 6.258654 -0.18150494 10.45108785 -3 16 C-3.66 16 -4.32 16 -5 16 C-5.33 17.32 -5.66 18.64 -6 20 C-6.66 20 -7.32 20 -8 20 C-8.33 20.99 -8.66 21.98 -9 23 C-9.66 22.67 -10.32 22.34 -11 22 C-10.43732422 21.12601562 -10.43732422 21.12601562 -9.86328125 20.234375 C-5.81305293 13.74584803 -2.76628312 7.12379105 0 0 Z " fill="#C6A2A0" transform="translate(493,314)"/>
<path d="M0 0 C4.83484337 0.60435542 8.76765311 2.73037722 13 5 C13.91910156 5.49242187 14.83820313 5.98484375 15.78515625 6.4921875 C20.2482576 8.90694758 24.66192725 11.36589096 29 14 C28.01 14.495 28.01 14.495 27 15 C24.83276367 14.16723633 24.83276367 14.16723633 22.16796875 12.83203125 C21.20439453 12.35056641 20.24082031 11.86910156 19.24804688 11.37304688 C18.23806641 10.85806641 17.22808594 10.34308594 16.1875 9.8125 C15.18912109 9.31685547 14.19074219 8.82121094 13.16210938 8.31054688 C8.39901731 5.90837453 3.97989918 3.61730533 0 0 Z " fill="#8E2D2C" transform="translate(296,167)"/>
<path d="M0 0 C0.66 0.33 1.32 0.66 2 1 C1.01 1.66 0.02 2.32 -1 3 C-1 4.32 -1 5.64 -1 7 C-5.455 8.485 -5.455 8.485 -10 10 C-10 9.34 -10 8.68 -10 8 C-10.99 7.67 -11.98 7.34 -13 7 C-10.88002166 5.80266012 -8.75486324 4.61701287 -6.625 3.4375 C-6.02171875 3.09525391 -5.4184375 2.75300781 -4.796875 2.40039062 C-3.23021759 1.53872905 -1.61709138 0.76281817 0 0 Z " fill="#C3252B" transform="translate(238,238)"/>
<path d="M0 0 C1.25159912 0.04713135 2.50319824 0.0942627 3.79272461 0.14282227 C4.45719101 0.16643326 5.12165741 0.19004425 5.80625916 0.21437073 C7.93607115 0.29116537 10.06553382 0.37512065 12.19506836 0.45922852 C13.63580627 0.51243345 15.07656141 0.56517394 16.51733398 0.61743164 C20.05596149 0.74680138 23.59430977 0.88259592 27.13256836 1.02172852 C27.13256836 1.35172852 27.13256836 1.68172852 27.13256836 2.02172852 C9.80756836 2.51672852 9.80756836 2.51672852 -7.86743164 3.02172852 C-6.54743164 2.36172852 -5.22743164 1.70172852 -3.86743164 1.02172852 C-2.86743164 0.02172852 -2.86743164 0.02172852 0 0 Z " fill="#B41C20" transform="translate(364.867431640625,359.978271484375)"/>
<path d="M0 0 C4.13777072 3.44363489 5.55576476 7.20261907 7.3125 12.125 C7.58900391 12.85332031 7.86550781 13.58164062 8.15039062 14.33203125 C8.83495893 16.19778164 9.42509735 18.09759488 10 20 C9.67 20.66 9.34 21.32 9 22 C6 20 6 20 5.375 18.01171875 C5.189375 16.86123047 5.189375 16.86123047 5 15.6875 C4.2715815 11.85565144 3.06610943 9.32374125 1 6 C0.3125 2.6875 0.3125 2.6875 0 0 Z " fill="#CC423F" transform="translate(485,48)"/>
<path d="M0 0 C1.670625 0.061875 1.670625 0.061875 3.375 0.125 C4.375 2.125 5.375 4.125 6.375 6.125 C6.045 6.785 5.715 7.445 5.375 8.125 C1.26541233 6.67455729 -2.05758745 4.61389248 -5.625 2.125 C-3.625 0.125 -3.625 0.125 0 0 Z " fill="#A9AAAB" transform="translate(263.625,152.875)"/>
<path d="M0 0 C4.73789165 1.44323469 8.98858151 3.37226733 13.375 5.625 C14.01566406 5.94984375 14.65632812 6.2746875 15.31640625 6.609375 C16.87947501 7.40257407 18.44000622 8.20077031 20 9 C19.01 9.66 18.02 10.32 17 11 C12.75004736 9.84882032 9.31165556 7.3757292 5.6875 4.9375 C4.61886719 4.22464844 3.55023438 3.51179687 2.44921875 2.77734375 C1.64097656 2.19082031 0.83273438 1.60429687 0 1 C0 0.67 0 0.34 0 0 Z " fill="#B79C9B" transform="translate(220,129)"/>
<path d="M0 0 C0.66 0 1.32 0 2 0 C2 0.66 2 1.32 2 2 C3.32 1.67 4.64 1.34 6 1 C6.33 1.99 6.66 2.98 7 4 C7.66 4.33 8.32 4.66 9 5 C9 6.32 9 7.64 9 9 C5.59687262 7.94124926 2.98646769 6.99097846 0 5 C-0.1875 2.375 -0.1875 2.375 0 0 Z " fill="#D9282B" transform="translate(200,113)"/>
<path d="M0 0 C6.34339651 1.80610595 11.56938255 4.25627734 17 8 C14.35261084 9.4606285 13.10551666 10 10 10 C9.67 8.35 9.34 6.7 9 5 C8.01 5 7.02 5 6 5 C6 4.34 6 3.68 6 3 C4.02 2.34 2.04 1.68 0 1 C0 0.67 0 0.34 0 0 Z " fill="#D6423E" transform="translate(454,24)"/>
<path d="M0 0 C5.94 0.66 11.88 1.32 18 2 C14.76547965 5.23452035 14.39569501 5.44807666 10.125 5.5 C9.28195313 5.5309375 8.43890625 5.561875 7.5703125 5.59375 C5 5 5 5 0 0 Z " fill="#E8E8E8" transform="translate(203,368)"/>
<path d="M0 0 C1.55272539 3.9757682 0.39595196 6.90376212 -0.8125 10.875 C-1.16957031 12.06867188 -1.52664063 13.26234375 -1.89453125 14.4921875 C-2.89705505 17.67334076 -3.9322426 20.84021114 -5 24 C-5.33 24 -5.66 24 -6 24 C-6.23509196 19.18061476 -5.45184478 15.53701494 -4 11 C-3.34 11 -2.68 11 -2 11 C-2.04125 9.741875 -2.0825 8.48375 -2.125 7.1875 C-2.2390374 3.70935927 -2.05925681 3.08888522 0 0 Z " fill="#AD2C31" transform="translate(497,296)"/>
<path d="M0 0 C0.66 0.33 1.32 0.66 2 1 C1.67 2.32 1.34 3.64 1 5 C-2.49616455 6.04884937 -5.75921121 6.96432759 -9.375 7.5 C-10.24125 7.665 -11.1075 7.83 -12 8 C-12.33 8.66 -12.66 9.32 -13 10 C-13.66 9.34 -14.32 8.68 -15 8 C-12.54665445 6.63603538 -10.08808766 5.28365831 -7.625 3.9375 C-6.92632812 3.54755859 -6.22765625 3.15761719 -5.5078125 2.75585938 C-3.70389816 1.77584822 -1.85416518 0.88124929 0 0 Z " fill="#C02E2F" transform="translate(255,229)"/>
<path d="M0 0 C0.33 0 0.66 0 1 0 C1.04898437 0.93199219 1.09796875 1.86398437 1.1484375 2.82421875 C1.64654341 11.31778339 2.54203291 19.60607297 4 28 C2 27 2 27 0.8828125 24.6171875 C-0.30795192 19.73821472 -0.21307295 15.12483346 -0.125 10.125 C-0.11597656 9.15046875 -0.10695313 8.1759375 -0.09765625 7.171875 C-0.07421623 4.78099272 -0.04140442 2.39062739 0 0 Z " fill="#F6CCCE" transform="translate(7,275)"/>
<path d="M0 0 C1.32 0.66 2.64 1.32 4 2 C1.59310197 4.72675159 -0.92471023 6.11966596 -4.1875 7.6875 C-5.53908203 8.34298828 -5.53908203 8.34298828 -6.91796875 9.01171875 C-7.60503906 9.33785156 -8.29210937 9.66398438 -9 10 C-9.33 9.34 -9.66 8.68 -10 8 C-9.67 7.34 -9.34 6.68 -9 6 C-7.68 6 -6.36 6 -5 6 C-4.67 5.01 -4.34 4.02 -4 3 C-1.9375 2.3125 -1.9375 2.3125 0 2 C0 1.34 0 0.68 0 0 Z " fill="#BC9891" transform="translate(329,185)"/>
<path d="M0 0 C-0.66 0 -1.32 0 -2 0 C-2.061875 0.7425 -2.12375 1.485 -2.1875 2.25 C-3.24185138 5.8185739 -4.99909773 6.92245228 -8 9 C-7.125 4.25 -7.125 4.25 -6 2 C-6.33 1.01 -6.66 0.02 -7 -1 C-3.51418144 -2.2020064 -3.32007656 -2.21338437 0 0 Z " fill="#B71E21" transform="translate(479,338)"/>
<path d="M0 0 C1.98 0.66 3.96 1.32 6 2 C6 2.66 6 3.32 6 4 C6.66 4.33 7.32 4.66 8 5 C7.34 5.66 6.68 6.32 6 7 C5.01 7 4.02 7 3 7 C3 6.34 3 5.68 3 5 C1.02 5 -0.96 5 -3 5 C-2.01 3.35 -1.02 1.7 0 0 Z " fill="#E42C28" transform="translate(454,25)"/>
<path d="M0 0 C-0.8125 1.9375 -0.8125 1.9375 -2 4 C-2.99 4.33 -3.98 4.66 -5 5 C-5.73323796 7.01508358 -5.73323796 7.01508358 -6 9 C-7.98 9 -9.96 9 -12 9 C-3.25 0 -3.25 0 0 0 Z " fill="#DD4C48" transform="translate(42,31)"/>
<path d="M0 0 C2 1 2 1 3 3.75 C4.49158814 9.39672655 5.18377478 15.22564074 6 21 C0.91131376 15.91131376 0.55246107 6.85051732 0 0 Z " fill="#BC343B" transform="translate(11,297)"/>
<path d="M0 0 C0.33 0 0.66 0 1 0 C1.11038083 5.40866051 1.16853925 10.68845793 0 16 C-0.99 16.99 -1.98 17.98 -3 19 C-2.67 15.04 -2.34 11.08 -2 7 C-1.34 7 -0.68 7 0 7 C0 4.69 0 2.38 0 0 Z " fill="#D65A57" transform="translate(13,69)"/>
<path d="M0 0 C6.4 0.36923077 6.4 0.36923077 9.4375 3.5625 C9.953125 4.366875 10.46875 5.17125 11 6 C3.25531915 5.25531915 3.25531915 5.25531915 0 2 C0 1.34 0 0.68 0 0 Z " fill="#ADA4A4" transform="translate(237,139)"/>
<path d="M0 0 C2.94995547 3.45856848 5.22675738 6.80021485 7 11 C6.67 11.66 6.34 12.32 6 13 C2.50580046 10.78700696 1.1377194 8.98201791 0 5 C-0.125 2.1875 -0.125 2.1875 0 0 Z " fill="#E0C7C6" transform="translate(20,328)"/>
<path d="M0 0 C0.66 0.33 1.32 0.66 2 1 C-1.75 4 -1.75 4 -4 4 C-4 4.66 -4 5.32 -4 6 C-3.01 5.67 -2.02 5.34 -1 5 C-1.66 6.65 -2.32 8.3 -3 10 C-3.99 9.67 -4.98 9.34 -6 9 C-6 8.34 -6 7.68 -6 7 C-6.66 6.34 -7.32 5.68 -8 5 C-6.71475739 4.13619741 -5.42157581 3.28419631 -4.125 2.4375 C-3.04605469 1.72400391 -3.04605469 1.72400391 -1.9453125 0.99609375 C-1.30335938 0.66738281 -0.66140625 0.33867187 0 0 Z " fill="#BF292D" transform="translate(208,254)"/>
<path d="M0 0 C-4.07523049 3.42319361 -8.57062751 5.84493367 -13.9375 6.1875 C-14.9584375 6.0946875 -14.9584375 6.0946875 -16 6 C-16 5.34 -16 4.68 -16 4 C-14.02 4 -12.04 4 -10 4 C-10 3.34 -10 2.68 -10 2 C-6.49223216 0.39644899 -3.85645121 -0.22036864 0 0 Z " fill="#AA282E" transform="translate(464,351)"/>
<path d="M0 0 C4.7871428 0.57665391 8.25128824 2.64082996 12.3125 5.0625 C12.95767578 5.43955078 13.60285156 5.81660156 14.26757812 6.20507812 C15.84878152 7.13037493 17.4249146 8.06432681 19 9 C18.01 9.495 18.01 9.495 17 10 C15.21240234 9.28735352 15.21240234 9.28735352 13.0859375 8.12890625 C12.32539063 7.71962891 11.56484375 7.31035156 10.78125 6.88867188 C9.9871875 6.45103516 9.193125 6.01339844 8.375 5.5625 C7.17230469 4.9118457 7.17230469 4.9118457 5.9453125 4.24804688 C3.95955849 3.17243012 1.9781454 2.08952787 0 1 C0 0.67 0 0.34 0 0 Z " fill="#902929" transform="translate(277,157)"/>
<path d="M0 0 C0.66 0 1.32 0 2 0 C3.65 2.97 5.3 5.94 7 9 C3.23801156 7.11900578 -0.35918868 5.10046807 -4 3 C-3.01 2.67 -2.02 2.34 -1 2 C-0.67 1.34 -0.34 0.68 0 0 Z " fill="#B33A38" transform="translate(213,120)"/>
<path d="M0 0 C0.99 0.33 1.98 0.66 3 1 C-0.17530109 3.72168665 -2.94254825 5.85559053 -7 7 C-9.3125 6.625 -9.3125 6.625 -11 6 C-10.113125 5.566875 -9.22625 5.13375 -8.3125 4.6875 C-5.04295143 3.09546924 -5.04295143 3.09546924 -2.3125 1.25 C-1.549375 0.8375 -0.78625 0.425 0 0 Z " fill="#E2E1E4" transform="translate(465,354)"/>
<path d="M0 0 C1.57156655 3.1431331 0.11705576 5.365464 -0.9375 8.625 C-1.31777344 9.81351562 -1.69804687 11.00203125 -2.08984375 12.2265625 C-2.39019531 13.14179688 -2.69054687 14.05703125 -3 15 C-3.66 15 -4.32 15 -5 15 C-4.5520266 12.68547078 -4.09133539 10.37339961 -3.625 8.0625 C-3.36976563 6.77472656 -3.11453125 5.48695313 -2.8515625 4.16015625 C-2.57054687 3.11730469 -2.28953125 2.07445312 -2 1 C-1.34 0.67 -0.68 0.34 0 0 Z " fill="#D8B6B4" transform="translate(499,299)"/>
<path d="M0 0 C4.62 0 9.24 0 14 0 C14 0.33 14 0.66 14 1 C5 4 5 4 2 3 C2 2.34 2 1.68 2 1 C1.34 0.67 0.68 0.34 0 0 Z " fill="#E5E6E6" transform="translate(131,367)"/>
<path d="M0 0 C1.32 0.66 2.64 1.32 4 2 C3.54625 2.433125 3.0925 2.86625 2.625 3.3125 C0.79975666 5.10798342 0.79975666 5.10798342 -1 8 C-2.32 6.68 -3.64 5.36 -5 4 C-3.35 2.68 -1.7 1.36 0 0 Z " fill="#BC191D" transform="translate(37,337)"/>
<path d="M0 0 C4.05281712 1.22527029 7.44360764 2.69880494 11 5 C10.67 5.99 10.34 6.98 10 8 C9.01 8 8.02 8 7 8 C6.67 6.68 6.34 5.36 6 4 C5.01 4 4.02 4 3 4 C3 3.34 3 2.68 3 2 C2.01 2 1.02 2 0 2 C0 1.34 0 0.68 0 0 Z " fill="#B09997" transform="translate(290,165)"/>
<path d="M0 0 C4.62 2.31 9.24 4.62 14 7 C9.65040163 8.08739959 8.83929731 7.87042689 5 6 C4.01 5.34 3.02 4.68 2 4 C2 3.34 2 2.68 2 2 C1.34 2 0.68 2 0 2 C0 1.34 0 0.68 0 0 Z " fill="#B29792" transform="translate(276,157)"/>
<path d="M0 0 C5.8795812 1.86425745 11.5251574 4.15308185 17 7 C17 7.66 17 8.32 17 9 C10.83643195 7.3341708 5.51740344 4.12194714 0 1 C0 0.67 0 0.34 0 0 Z " fill="#952B2D" transform="translate(219,127)"/>
<path d="M0 0 C0 3 0 3 -1.125 4.5625 C-3.63741401 6.48868407 -5.93414645 7.24917872 -9 8 C-10.32 7.67 -11.64 7.34 -13 7 C-8.71 4.69 -4.42 2.38 0 0 Z " fill="#B93639" transform="translate(223,246)"/>
<path d="M0 0 C3.66739101 3.66739101 4.125 7.86829525 4.125 12.875 C4.09322822 14.25026422 4.05498128 15.62546802 4 17 C3.34 16.67 2.68 16.34 2 16 C1.52402634 13.29400158 1.15906371 10.66404596 0.875 7.9375 C0.78863281 7.17888672 0.70226562 6.42027344 0.61328125 5.63867188 C0.40060483 3.76003014 0.19924541 1.88011364 0 0 Z " fill="#EDCFCD" transform="translate(498,79)"/>
<path d="M0 0 C3.3 0 6.6 0 10 0 C10.33 1.32 10.66 2.64 11 4 C7.37 3.34 3.74 2.68 0 2 C0 1.34 0 0.68 0 0 Z " fill="#F0EFEE" transform="translate(55,362)"/>
<path d="M0 0 C0.66 0 1.32 0 2 0 C2 0.66 2 1.32 2 2 C2.66 2 3.32 2 4 2 C6.125 3.6875 6.125 3.6875 8 6 C8.25 8.75 8.25 8.75 8 11 C4.31993178 7.61831569 2.0214155 4.57478244 0 0 Z " fill="#B32C33" transform="translate(22,330)"/>
<path d="M0 0 C1.98 0.99 1.98 0.99 4 2 C4 3.65 4 5.3 4 7 C4.66 7 5.32 7 6 7 C5.67 8.32 5.34 9.64 5 11 C0 4.63636364 0 4.63636364 0 0 Z " fill="#B63137" transform="translate(17,319)"/>
<path d="M0 0 C3.98175544 2.10148204 6.35039045 4.36905358 9 8 C7.68 8.33 6.36 8.66 5 9 C4.67 7.35 4.34 5.7 4 4 C2.35 4 0.7 4 -1 4 C-0.67 2.68 -0.34 1.36 0 0 Z " fill="#D63F3E" transform="translate(471,33)"/>
<path d="M0 0 C2.62697064 -0.22137393 5.00893964 -0.28162025 7.625 -0.1875 C8.33140625 -0.17396484 9.0378125 -0.16042969 9.765625 -0.14648438 C11.51074128 -0.1111104 13.25546608 -0.05730221 15 0 C13.68 0.99 12.36 1.98 11 3 C10.34 2.67 9.68 2.34 9 2 C5.16411738 1.82951633 1.7348373 2.12121475 -2 3 C-1.34 2.01 -0.68 1.02 0 0 Z " fill="#E9EAEA" transform="translate(97,366)"/>
<path d="M0 0 C-0.99 1.485 -0.99 1.485 -2 3 C-5.4375 3.125 -5.4375 3.125 -9 3 C-9.99 3.33 -10.98 3.66 -12 4 C-11.67 3.01 -11.34 2.02 -11 1 C-7.26562152 0.12132271 -3.83225427 -0.08912219 0 0 Z " fill="#EFEEEC" transform="translate(440,363)"/>
<path d="M0 0 C-1.03491649 2.82249951 -1.69915265 3.83374226 -4.375 5.3125 C-7.16653942 6.04361747 -8.30861211 5.79596365 -11 5 C-9.54462432 4.16151196 -8.08559627 3.32936066 -6.625 2.5 C-5.81289063 2.0359375 -5.00078125 1.571875 -4.1640625 1.09375 C-2 0 -2 0 0 0 Z " fill="#B18F8C" transform="translate(471,348)"/>
<path d="M0 0 C2.64 0 5.28 0 8 0 C8 0.66 8 1.32 8 2 C8.66 2 9.32 2 10 2 C9.67 2.99 9.34 3.98 9 5 C4.545 3.02 4.545 3.02 0 1 C0 0.67 0 0.34 0 0 Z " fill="#AA2224" transform="translate(325,182)"/>
<path d="M0 0 C-1.20381448 2.49361571 -2.45428722 4.68143083 -4 7 C-4.99 7 -5.98 7 -7 7 C-7 6.34 -7 5.68 -7 5 C-6.34 5 -5.68 5 -5 5 C-5 3.68 -5 2.36 -5 1 C-3 0 -3 0 0 0 Z " fill="#E22B27" transform="translate(35,39)"/>
<path d="M0 0 C2.34914492 2.34914492 2.73140357 3.95679446 3.625 7.125 C3.88539062 8.03507812 4.14578125 8.94515625 4.4140625 9.8828125 C4.70410156 10.93082031 4.70410156 10.93082031 5 12 C3.68 12 2.36 12 1 12 C0.67 8.04 0.34 4.08 0 0 Z " fill="#E9C2C1" transform="translate(15,316)"/>
<path d="M0 0 C0.33 0 0.66 0 1 0 C1.32434322 4.64891954 0.776422 7.22406608 -2 11 C-2.33 11 -2.66 11 -3 11 C-2.25 3.375 -2.25 3.375 0 0 Z " fill="#C41820" transform="translate(492,307)"/>
<path d="M0 0 C5.75 1.75 5.75 1.75 8 4 C4.71303767 4.79953138 3.28976808 5.09658936 0 4 C0 2.68 0 1.36 0 0 Z " fill="#AE9894" transform="translate(267,153)"/>
<path d="M0 0 C0 3 0 3 -2.5 5.6875 C-3.325 6.450625 -4.15 7.21375 -5 8 C-5.99 7.67 -6.98 7.34 -8 7 C-5.42215154 4.35247996 -3.08351902 2.05567935 0 0 Z " fill="#D6D4D9" transform="translate(476,346)"/>
<path d="M0 0 C1.32 0 2.64 0 4 0 C4 3.96 4 7.92 4 12 C2 11 2 11 0.875 7.6875 C0 4 0 4 0 0 Z " fill="#C21C20" transform="translate(11,293)"/>
<path d="M0 0 C0 2 0 2 -1.625 4.1875 C-4 6 -4 6 -7.25 5.75 C-8.1575 5.5025 -9.065 5.255 -10 5 C-3.63636364 0 -3.63636364 0 0 0 Z " fill="#C1373C" transform="translate(298,207)"/>
<path d="M0 0 C3.34944548 5.02416822 3.09834146 9.09951257 3 15 C2.67 15 2.34 15 2 15 C2 13.02 2 11.04 2 9 C1.34 9 0.68 9 0 9 C0 6.03 0 3.06 0 0 Z " fill="#CD4543" transform="translate(495,71)"/>
<path d="M0 0 C0.66 0.33 1.32 0.66 2 1 C0.25705322 1.86846831 -1.49468663 2.71930627 -3.25 3.5625 C-4.22453125 4.03816406 -5.1990625 4.51382812 -6.203125 5.00390625 C-9.09856297 6.03510273 -10.19966161 6.11346788 -13 5 C-11.3962669 4.35309078 -9.79199694 3.70751236 -8.1875 3.0625 C-6.84751953 2.52302734 -6.84751953 2.52302734 -5.48046875 1.97265625 C-3.6729091 1.26386514 -1.84192591 0.6139753 0 0 Z " fill="#B8B8B5" transform="translate(467,352)"/>
<path d="M0 0 C0.33 0.66 0.66 1.32 1 2 C1.66 2 2.32 2 3 2 C3.66 4.64 4.32 7.28 5 10 C3.0625 9.3125 3.0625 9.3125 1 8 C0.13970066 5.20402714 0 2.92828926 0 0 Z " fill="#F4EDEE" transform="translate(17,326)"/>
<path d="M0 0 C0.66 0.33 1.32 0.66 2 1 C1.01 1.66 0.02 2.32 -1 3 C-1 4.32 -1 5.64 -1 7 C-2.98 6.34 -4.96 5.68 -7 5 C-5.47058649 1.94117299 -3.05780454 1.31048766 0 0 Z M-5 7 C-3 8 -3 8 -3 8 Z " fill="#BE3134" transform="translate(238,238)"/>
<path d="M0 0 C2.31 0 4.62 0 7 0 C4.14693203 2.32472205 1.45925163 3.7508258 -2 5 C-1.34 3.35 -0.68 1.7 0 0 Z " fill="#FCE4E0" transform="translate(235,236)"/>
<path d="M0 0 C0.66 0.33 1.32 0.66 2 1 C-0.36292656 3.52588702 -1.66462511 4.88820837 -5 6 C-5.66 5.34 -6.32 4.68 -7 4 C-1.7265625 0.77734375 -1.7265625 0.77734375 0 0 Z " fill="#C2353B" transform="translate(264,224)"/>
<path d="M0 0 C0 1.32 0 2.64 0 4 C-5.75 2.25 -5.75 2.25 -8 0 C-2.25 -1.125 -2.25 -1.125 0 0 Z " fill="#C03031" transform="translate(209,118)"/>
<path d="M0 0 C2.97 0 5.94 0 9 0 C9.33 0.66 9.66 1.32 10 2 C6.7 2.33 3.4 2.66 0 3 C0 2.01 0 1.02 0 0 Z " fill="#DE3028" transform="translate(432,21)"/>
<path d="M0 0 C3.3 0 6.6 0 10 0 C6 3 6 3 3.3125 2.8125 C1 2 1 2 0 0 Z " fill="#E4E4E4" transform="translate(174,368)"/>
<path d="M0 0 C-3.25179812 2.21713508 -6.4213696 4.34832443 -10 6 C-10 5.01 -10 4.02 -10 3 C-9.01 3 -8.02 3 -7 3 C-6.67 2.01 -6.34 1.02 -6 0 C-3 -1 -3 -1 0 0 Z " fill="#FDE2DB" transform="translate(42,31)"/>
<path d="M0 0 C2.64 0.33 5.28 0.66 8 1 C8 1.99 8 2.98 8 4 C8.66 4 9.32 4 10 4 C9.67 4.66 9.34 5.32 9 6 C6.03 4.35 3.06 2.7 0 1 C0 0.67 0 0.34 0 0 Z " fill="#FEE1DC" transform="translate(461,26)"/>
<path d="M0 0 C0 0.99 0 1.98 0 3 C-2.64 3 -5.28 3 -8 3 C-6.23110084 -0.53779831 -3.70375662 0 0 0 Z " fill="#B71A22" transform="translate(416,358)"/>
<path d="M0 0 C-1.45537568 0.83848804 -2.91440373 1.67063934 -4.375 2.5 C-5.59316406 3.19609375 -5.59316406 3.19609375 -6.8359375 3.90625 C-9 5 -9 5 -11 5 C-10 2 -10 2 -6.625 0.25 C-3 -1 -3 -1 0 0 Z " fill="#FDE4E1" transform="translate(309,201)"/>
<path d="M0 0 C2.25 -0.25 2.25 -0.25 5 0 C7.3125 2 7.3125 2 9 4 C4.545 3.01 4.545 3.01 0 2 C0 1.34 0 0.68 0 0 Z " fill="#B82829" transform="translate(236,135)"/>
<path d="M0 0 C0 3 0 3 -2.5 5.6875 C-3.325 6.450625 -4.15 7.21375 -5 8 C-5.66 7.67 -6.32 7.34 -7 7 C-4.66666667 4.66666667 -2.33333333 2.33333333 0 0 Z " fill="#EEECF0" transform="translate(483,341)"/>
<path d="M0 0 C0.33 0 0.66 0 1 0 C1.39063507 1.43333021 1.76198474 2.87192679 2.125 4.3125 C2.33382813 5.11300781 2.54265625 5.91351563 2.7578125 6.73828125 C3 9 3 9 1 12 C-0.26237731 9.47524538 -0.09856404 7.68799534 -0.0625 4.875 C-0.05347656 3.96492188 -0.04445313 3.05484375 -0.03515625 2.1171875 C-0.02355469 1.41851562 -0.01195312 0.71984375 0 0 Z " fill="#BD2225" transform="translate(9,278)"/>
<path d="M0 0 C0.598125 0.20625 1.19625 0.4125 1.8125 0.625 C1.4825 1.945 1.1525 3.265 0.8125 4.625 C0.1525 4.625 -0.5075 4.625 -1.1875 4.625 C-1.1875 3.965 -1.1875 3.305 -1.1875 2.625 C-2.5075 2.295 -3.8275 1.965 -5.1875 1.625 C-2.1875 -0.375 -2.1875 -0.375 0 0 Z " fill="#E32B26" transform="translate(473.1875,36.375)"/>
<path d="M0 0 C-0.6875 1.9375 -0.6875 1.9375 -2 4 C-4.625 4.75 -4.625 4.75 -7 5 C-2.25 0 -2.25 0 0 0 Z " fill="#DF5554" transform="translate(42,31)"/>
<path d="M0 0 C3.82097239 0.53069061 6.06171403 1.49701566 9 4 C6.36 3.67 3.72 3.34 1 3 C0.67 2.01 0.34 1.02 0 0 Z " fill="#D5D6DB" transform="translate(51,357)"/>
<path d="M0 0 C2.31 0 4.62 0 7 0 C7 0.66 7 1.32 7 2 C7.66 2 8.32 2 9 2 C9 2.66 9 3.32 9 4 C6.03 3.01 3.06 2.02 0 1 C0 0.67 0 0.34 0 0 Z " fill="#BDACAB" transform="translate(51,356)"/>
<path d="M0 0 C1.31471568 0.28151087 2.62675767 0.57553339 3.9375 0.875 C4.66839844 1.03742188 5.39929687 1.19984375 6.15234375 1.3671875 C8 2 8 2 9 4 C6.75 4.25 6.75 4.25 4 4 C1.6875 2 1.6875 2 0 0 Z " fill="#D9D3D5" transform="translate(42,353)"/>
<path d="M0 0 C0.99 0.33 1.98 0.66 3 1 C1.35 2.98 -0.3 4.96 -2 7 C-2.33 5.68 -2.66 4.36 -3 3 C-2.34 3 -1.68 3 -1 3 C-0.67 2.01 -0.34 1.02 0 0 Z " fill="#B02A32" transform="translate(480,335)"/>
<path d="M0 0 C1.32 0.33 2.64 0.66 4 1 C4 1.66 4 2.32 4 3 C4.66 3 5.32 3 6 3 C6 4.65 6 6.3 6 8 C3.87961365 5.38485683 1.86908256 2.80362384 0 0 Z " fill="#FDE2DD" transform="translate(480,40)"/>
</svg>
